<svg xmlns="http://www.w3.org/2000/svg" viewBox="0 0 200 200" width="200" height="200" fill="none">
  <circle cx="100" cy="100" r="96" fill="#0E1A17"/>
  <g stroke="#FFFFFF" stroke-opacity="0.9" stroke-width="3.2" stroke-linecap="round">
    <line x1="100" y1="78" x2="100" y2="48"/>
    <line x1="119.05" y1="89" x2="145.03" y2="74"/>
    <line x1="119.05" y1="111" x2="145.03" y2="126"/>
    <line x1="100" y1="122" x2="100" y2="152"/>
    <line x1="80.95" y1="111" x2="54.97" y2="126"/>
    <line x1="80.95" y1="89" x2="54.97" y2="74"/>
  </g>
  <g fill="#FFFFFF" fill-opacity="0.92">
    <circle cx="100" cy="36" r="11"/>
    <circle cx="155.42" cy="68" r="11"/>
    <circle cx="155.42" cy="132" r="11"/>
    <circle cx="100" cy="164" r="11"/>
    <circle cx="44.58" cy="132" r="11"/>
    <circle cx="44.58" cy="68" r="11"/>
  </g>
  <circle cx="100" cy="100" r="19" fill="#FFFFFF" fill-opacity="0.96"/>
  <path d="M95 93L103 100L95 107" stroke="#0E1A17" stroke-width="3.4" stroke-linecap="round" stroke-linejoin="round" fill="none"/>
  <path d="M105 93L113 100L105 107" stroke="#0E1A17" stroke-width="3.4" stroke-linecap="round" stroke-linejoin="round" fill="none"/>
</svg>
